<svg xmlns="http://www.w3.org/2000/svg" viewBox="0 0 64 64" id="certification"><path d="M17.5 31.5c-.6 0-1 .4-1 1 0 3.9 3.1 7 7 7 1.2 0 2.6.6 3.5 1.5 1.4 1.3 3.2 2 5 2s3.6-.7 5-2c.9-1 2.1-1.5 3.5-1.5 3.9 0 7-3.1 7-7 0-1.2.6-2.6 1.5-3.5 2.7-2.8 2.7-7.2 0-9.9-1-.9-1.5-2.1-1.5-3.5 0-3.9-3.1-7-7-7-1.2 0-2.6-.6-3.5-1.5C35.7 5.8 34 5 32.1 5c-1.9-.1-3.7.7-5.1 2.1-.9 1-2.1 1.5-3.5 1.5-3.9 0-7 3.1-7 7 0 1.2-.6 2.6-1.5 3.5-2.7 2.8-2.7 7.2 0 9.9.4.4 1 .4 1.4 0s.4-1 0-1.4c-1.9-1.9-1.9-5.1 0-7.1 1.3-1.3 2.1-3.2 2.1-4.9 0-2.8 2.2-5 5-5 1.9 0 3.7-.8 4.9-2.1 1-1 2.3-1.5 3.6-1.5s2.5.5 3.5 1.5c1.3 1.3 3.2 2.1 4.9 2.1 2.8 0 5 2.2 5 5 0 1.9.8 3.7 2.1 4.9 1.9 1.9 1.9 5.1 0 7.1-1.3 1.3-2.1 3.2-2.1 4.9 0 2.8-2.2 5-5 5-1.9 0-3.7.8-4.9 2.1-1.9 1.9-5.1 1.9-7.1 0-1.3-1.3-3.2-2.1-4.9-2.1-2.8 0-5-2.2-5-5 0-.6-.4-1-1-1z" fill="#ffffff" class="color000000 svgShape"></path><path d="M55 24c0-1.2-.1-2.5-.3-3.7-.1-.5-.6-.9-1.1-.8s-.9.6-.8 1.1c.2 1.1.3 2.3.3 3.4 0 11.6-9.4 21-21 21s-21-9.4-21-21 9.4-21 21-21c6.2 0 12 2.7 16 7.5.4.4 1 .5 1.4.1s.5-1 .1-1.4C45.2 4 38.8 1 32 1 19.3 1 9 11.3 9 24s10.3 23 23 23 23-10.3 23-23z" fill="#ffffff" class="color000000 svgShape"></path><path d="M51.7 16.7c.1.4.7.8 1.2.6.5-.2.8-.8.6-1.3-.3-.7-.6-1.5-.9-2.1-.2-.5-.8-.7-1.3-.5s-.7.8-.5 1.3c.4.7.6 1.3.9 2zm2.4 35.1-2.1-.3c-.4-.1-.9.2-1 .6l-3.1 7.4-6.9-12c-.3-.5-.9-.6-1.4-.4-.5.3-.6.9-.4 1.4l7.9 13.7c.2.3.5.5.9.5 0 0 .6 0 1-.6l3.6-8.5 1.4.2c.6.1 1-.3 1.1-.9 0-.6-.4-1.1-1-1.1zm8.7 1.4-8.6-14.9c-.3-.5-.9-.6-1.4-.4-.5.3-.6.9-.4 1.4L60 52.5l-1.8-.2c-.6-.1-1 .3-1.1.9-.1.5.3 1 .9 1.1l3.9.5c.3 0 .6-.2.8-.4.2-.5.3-.9.1-1.2zm-38.5-6c-.5-.3-1.1-.1-1.4.4l-6.9 12-3.2-7.4c-.2-.4-.6-.7-1-.6l-7.9.9L11.7 39c.3-.5.1-1.1-.4-1.4-.5-.3-1.1-.1-1.4.4L1.1 53.2c-.2.3-.2.7 0 1.1.2.3.6.5 1 .4l9.2-1.1 3.7 8.5c.1.3.6.6 1 .6s.7-.2.9-.5l7.9-13.7c.1-.4 0-1.1-.5-1.3zm-1.6-21.9c-.4-.4-1-.4-1.4 0s-.4 1 0 1.4l6 6c.2.2.5.3.7.3s.5-.1.7-.3l14-14c.4-.4.4-1 0-1.4s-1-.4-1.4 0L28 30.6l-5.3-5.3z" fill="#ffffff" class="color000000 svgShape"></path><path d="M9.9 48.9c.5.5 1.2-.1 1.4-.4l2.4-4c.3-.5.1-1.1-.3-1.4-.5-.3-1.1-.1-1.4.3l-2.4 4c-.3.6-.2 1.2.3 1.5zm34.7-1.8c-.5.3-.6.9-.4 1.4l2.9 5c.2.3.7.8 1.4.4.5-.3.6-.9.4-1.4l-2.9-5c-.3-.5-.9-.6-1.4-.4zm-11-33.9s1.1.2 1.3-.9c.2-.9-1-1.1-1-1.1-.6-.1-1.2-.2-1.9-.2-.6 0-1 .4-1 1s.4 1 1 1c.5 0 1 .1 1.6.2zm-5.9-1.4C24 13 21 16 19.8 19.7c-.2.5.1 1.1.6 1.3.4.2 1.1-.2 1.2-.6 1.1-3.1 3.6-5.6 6.7-6.7.5-.2.8-.8.6-1.3-.1-.6-.7-.8-1.2-.6z" fill="#ffffff" class="color000000 svgShape"></path></svg>