<svg xmlns="http://www.w3.org/2000/svg" enable-background="new 0 0 32 32" viewBox="0 0 32 32" id="Right"><path d="M29.455,15.118L3.429,2.104C3.124,1.952,2.76,1.967,2.47,2.147C2.179,2.326,2.002,2.645,2.002,2.986L2,11.352
		c0,0.386,0.226,0.737,0.578,0.897l8.251,3.753l-8.251,3.749C2.226,19.911,2,20.262,2,20.648v8.365c0,0.342,0.177,0.659,0.467,0.839
		C2.626,29.951,2.806,30,2.986,30c0.151,0,0.302-0.035,0.441-0.104l26.028-13.014C29.789,16.715,30,16.374,30,16
		S29.789,15.285,29.455,15.118z M3.972,10.717l0.001-6.136l20.864,10.433H13.42L3.972,10.717z M3.972,21.283l9.456-4.297h11.409
		L3.972,27.419V21.283z" fill="#ffffff" class="color000000 svgShape"></path></svg>