<svg xmlns:mydata="http://www.w3.org/2000/svg" mydata:contrastcolor="ffffff" mydata:template="Contrast" mydata:presentation="2.5" mydata:layouttype="undefined" mydata:specialfontid="undefined" mydata:id1="640" mydata:id2="214" mydata:companytagline="" version="1.1" xmlns="http://www.w3.org/2000/svg" xmlns:xlink="http://www.w3.org/1999/xlink" style="height: 597px;" viewBox="0 0 550 470"><g fill="#c98bdb" fill-rule="nonzero" stroke="none" stroke-width="1" stroke-linecap="butt" stroke-linejoin="miter" stroke-miterlimit="10" stroke-dasharray="" stroke-dashoffset="0" font-family="none" font-weight="none" font-size="none" text-anchor="none" style="mix-blend-mode: normal"><g data-paper-data="{&quot;isGlobalGroup&quot;:true,&quot;bounds&quot;:{&quot;x&quot;:171.13047768040477,&quot;y&quot;:115.00000000000001,&quot;width&quot;:207.7390446391905,&quot;height&quot;:240}}"><g data-paper-data="{&quot;fillRule&quot;:&quot;nonzero&quot;,&quot;fillRuleOriginal&quot;:&quot;nonzero&quot;,&quot;isIcon&quot;:true,&quot;iconStyle&quot;:&quot;standalone&quot;,&quot;selectedEffects&quot;:{&quot;container&quot;:&quot;square_simple_outline1_rounded_rotated&quot;,&quot;transformation&quot;:&quot;&quot;,&quot;pattern&quot;:&quot;&quot;},&quot;bounds&quot;:{&quot;x&quot;:214.1545086900465,&quot;y&quot;:115.00000000000001,&quot;width&quot;:121.69098261990695,&quot;height&quot;:121.69098261990693},&quot;widthRatioIconToContainer&quot;:0.4415365030684989,&quot;heightRatioIconToContainer&quot;:0.666487781764137,&quot;relativeBoundsIconToContainer&quot;:{&quot;top&quot;:0.06828780531292719,&quot;left&quot;:-0.02832664697402709},&quot;iconType&quot;:&quot;initial&quot;,&quot;initialText&quot;:&quot;Y&quot;,&quot;rawInitialId&quot;:898,&quot;suitableAsStandaloneIcon&quot;:true}" id="element-id-40999"><path d="M279.30149,171.76909l15.10124,-28.16637h4.01569l-26.75239,49.99813v31.10743h-3.56322v-30.99431l-17.19393,-25.28186c1.58366,0.67871 3.26157,1.03692 5.03374,1.07462l13.74383,20.24811l7.69202,-14.36597c-2.03612,-3.35583 -4.73209,-5.80672 -8.08794,-7.35267c-3.31812,-1.47054 -6.80593,-1.92301 -10.4634,-1.35741c-0.79183,0.15082 -1.62136,0.22624 -2.48859,0.22624c-3.09189,0 -5.82558,-1.13117 -8.20105,-3.39354c-2.30006,-2.30006 -3.4501,-5.0526 -3.4501,-8.25761c0,-3.09189 1.15003,-5.84443 3.4501,-8.25761c2.26236,-2.26236 4.99604,-3.39354 8.20105,-3.39354c3.1296,0 5.88213,1.13118 8.25761,3.39354c0.86724,0.86724 1.56479,1.82874 2.09268,2.88451zM262.051,160.96632c1.62136,-1.58364 2.43204,-3.4878 2.43204,-5.71245c0,-2.22466 -0.81067,-4.1288 -2.43204,-5.71245c-1.58364,-1.58364 -3.4878,-2.37548 -5.71245,-2.37548c-2.14924,0 -4.05339,0.79183 -5.71245,2.37548c-1.58364,1.58366 -2.37548,3.4878 -2.37548,5.71245c0,2.14924 0.79183,4.05339 2.37548,5.71245c1.58366,1.58366 3.4878,2.37548 5.71245,2.37548c2.14924,0 4.05339,-0.79183 5.71245,-2.37548zM270.76107,164.81234c0.18853,0.11312 0.37707,0.20738 0.56559,0.2828c0.03771,0 0.05656,0 0.05656,0l-3.78945,-6.56084c-0.52788,1.73448 -1.39512,3.26157 -2.60171,4.58127c1.99842,0.30165 3.92142,0.86724 5.76901,1.69677zM216.78302,169.50005l51.87153,-51.87153c1.75233,-1.75234 3.86747,-2.62851 6.34544,-2.62851c2.47798,0 4.59316,0.87617 6.34555,2.62851l51.87134,51.87153c1.7524,1.75233 2.6286,3.86747 2.6286,6.34544c0,2.47815 -0.8762,4.59334 -2.6286,6.34555l-51.87134,51.87134c-1.7524,1.7524 -3.86758,2.6286 -6.34555,2.6286c-2.47798,0 -4.59312,-0.8762 -6.34544,-2.6286l-51.87153,-51.87134c-1.75234,-1.7524 -2.62851,-3.86758 -2.62851,-6.34555c0,-2.47798 0.87617,-4.59312 2.62851,-6.34544zM275.00001,235.10549c2.04019,0 3.78168,-0.72131 5.22447,-2.16391l51.87162,-51.87162c1.4426,-1.44279 2.16391,-3.18428 2.16391,-5.22447c0,-2.04019 -0.72131,-3.78166 -2.16391,-5.22441l-51.87162,-51.87153c-1.44279,-1.44268 -3.18428,-2.16402 -5.22447,-2.16402c-2.04019,0 -3.78166,0.72134 -5.22441,2.16402l-51.87153,51.87153c-1.44268,1.44275 -2.16402,3.18422 -2.16402,5.22441c0,2.04019 0.72134,3.78168 2.16402,5.22447l51.87153,51.87162c1.44275,1.4426 3.18422,2.16391 5.22441,2.16391z" data-paper-data="{&quot;isPathIcon&quot;:true}" id="element-id-12121"></path></g></g></g></svg>  
