<svg xmlns="http://www.w3.org/2000/svg" viewBox="0 0 24 24" id="Doublechevronrightarrow"><g data-name="34" fill="#6e57e0" class="color000000 svgShape"><path fill="none" d="M24 24H0V0h24z"></path><path d="M12 14.72a.75.75 0 0 0 0 1.06.75.75 0 0 0 1.06 0l3.25-3.25a.75.75 0 0 0 0-1.06L13 8.22a.75.75 0 0 0-1 1.06L14.69 12Zm-4.25 0a.75.75 0 0 0 0 1.06.75.75 0 0 0 1.06 0L12 12.53a.75.75 0 0 0 0-1.06L8.78 8.22a.75.75 0 0 0-1.06 1.06L10.44 12Z" fill="rgb(124 58 237)" class="color000000 svgShape"></path></g></svg>