<svg xmlns="http://www.w3.org/2000/svg" viewBox="0 0 24 24" id="Doublechevronleftarrow"><g data-name="33" fill="#6e57e0" class="color000000 svgShape"><path fill="none" d="M0 0h24v24H0z"></path><path d="M12 14.72a.75.75 0 0 1 0 1.06.75.75 0 0 1-1.06 0l-3.22-3.25a.75.75 0 0 1 0-1.06L11 8.22a.75.75 0 0 1 1 1.06L9.31 12Zm4.25 0a.75.75 0 0 1 0 1.06.75.75 0 0 1-1.06 0L12 12.53a.75.75 0 0 1 0-1.06l3.25-3.25a.75.75 0 0 1 1.06 1.06L13.56 12Z" fill="rgb(124 58 237)" class="color000000 svgShape"></path></g></svg>