<svg xmlns="http://www.w3.org/2000/svg" data-name="Layer 1" viewBox="0 0 512 512" id="Skills"><path d="M179.9,269.1a40.7,40.7,0,0,0,21.7,6.74h.72a41.31,41.31,0,0,0,22.43-6.75,7.5,7.5,0,1,0-8.25-12.52,25.63,25.63,0,0,1-28.34,0,7.5,7.5,0,0,0-8.26,12.52Zm55.71-55.9a7.5,7.5,0,0,0,7.5-7.5V196a7.5,7.5,0,1,0-15,0v9.68A7.5,7.5,0,0,0,235.61,213.2ZM474,379.77l-57.4-30.92a11.33,11.33,0,0,0-10.81,0l-57.4,30.92a11.4,11.4,0,0,0,0,20.07l14.89,8V446.2a17.55,17.55,0,0,0,10.84,16.24l5.89,2.46a81.62,81.62,0,0,0,62.36,0l5.9-2.46a17.54,17.54,0,0,0,10.83-16.24V407.86l6.16-3.31v18.11a7.5,7.5,0,0,0,15,0V389.8a7.49,7.49,0,0,0-.78-3.3A11.39,11.39,0,0,0,474,379.77Zm-29.9,66.43a2.6,2.6,0,0,1-1.6,2.4l-5.9,2.46a66.57,66.57,0,0,1-50.82,0l-5.9-2.46a2.6,2.6,0,0,1-1.6-2.4V416l27.51,14.81h0a11.35,11.35,0,0,0,10.81,0L444.14,416Zm3.95-49.43,0,0-36.81,19.84-36.8-19.83-.07,0-12.93-7L411.23,363,461,389.8ZM202.27,407.08a7.5,7.5,0,1,0,7.5,7.5A7.5,7.5,0,0,0,202.27,407.08ZM487.6,284.58H454.37v-.23a23.52,23.52,0,0,0-23.5-23.5h-39a23.52,23.52,0,0,0-23.5,23.5v.23H335.13a24.43,24.43,0,0,0-24.4,24.4v24.67L295,330.59a13.74,13.74,0,0,0-1.75-1.92l-17.57-16a13.46,13.46,0,0,0-15.28-2l-4.52-6.7a83.84,83.84,0,0,0,30.42-64.56h5.94A20.44,20.44,0,0,0,312.63,219v-20.1a20.44,20.44,0,0,0-20.42-20.41h-5.93V170.6a16.23,16.23,0,0,0-2.77-9.09,34.54,34.54,0,0,0,2.77-13.5V91.93a12.52,12.52,0,0,0-12.5-12.5H156.38c-21.81,0-38.12,21.28-38.12,40.31v58.78h-5.93a20.43,20.43,0,0,0-20.41,20.41V219a20.43,20.43,0,0,0,20.41,20.41h5.94a83.84,83.84,0,0,0,31,65l-4.39,6.61a13.49,13.49,0,0,0-16,1.62l-17.57,16a13.52,13.52,0,0,0-2.14,2.48l-44.82,8.22-.44.1c-32.65,8-57.32,35.45-61.39,68.22q-.13,1.11-.24,2.22L0,433.16q0,.36,0,.72V474.5A37.54,37.54,0,0,0,37.5,512H333.34l.6,0c.39,0,.79,0,1.19,0H487.6A24.42,24.42,0,0,0,512,487.6V309A24.43,24.43,0,0,0,487.6,284.58ZM286.28,193.52h5.93a5.42,5.42,0,0,1,5.42,5.41V219a5.42,5.42,0,0,1-5.42,5.41h-5.93Zm-168,30.92h-5.93a5.41,5.41,0,0,1-5.41-5.41v-20.1a5.41,5.41,0,0,1,5.41-5.41h5.93ZM263.37,327.53a7.75,7.75,0,0,0,.74-.66l2.45-2.17,15.63,14.21L242.5,400,213.32,372Zm-61.1,34.17-45.94-40.77,5.35-8.06a83.72,83.72,0,0,0,81.81-.37l5.33,7.89Zm-69-242c0-11.47,10.32-25.31,23.12-25.31h114.9V148a19.6,19.6,0,0,1-1,6.22H135.76a17.21,17.21,0,0,0-2.5.2Zm0,119.61V171.72a2.51,2.51,0,0,1,2.5-2.5H269.89a1.39,1.39,0,0,1,1.39,1.38v68.75a69,69,0,1,1-138,0ZM138,324.7,191.22,372,162,400l-39.69-61.12ZM163,401.55h0ZM83.09,497V443.25a7.5,7.5,0,0,0-15,0V497H37.5A22.52,22.52,0,0,1,15,474.5V434.24l2.22-22.88c.05-.61.12-1.21.2-1.82,3.3-26.57,23.33-48.83,49.87-55.46l42-7.7,41.13,63.34h0a13.46,13.46,0,0,0,9.78,6.06,13.6,13.6,0,0,0,1.56.09,13.43,13.43,0,0,0,9.34-3.78l31.14-29.95,31.14,30a13.5,13.5,0,0,0,20.68-2.38h0L295.46,346a.08.08,0,0,0,0,0l15.25,3V487.6a24.31,24.31,0,0,0,1.89,9.4ZM383.37,284.35a8.51,8.51,0,0,1,8.5-8.5h39a8.51,8.51,0,0,1,8.5,8.5v19a8.51,8.51,0,0,1-8.5,8.5h-39a8.51,8.51,0,0,1-8.5-8.5ZM497,487.6a9.4,9.4,0,0,1-9.4,9.4H335.13a9.41,9.41,0,0,1-9.4-9.4V309a9.41,9.41,0,0,1,9.4-9.4h33.24v3.77a23.52,23.52,0,0,0,23.5,23.5h39a23.52,23.52,0,0,0,23.5-23.5v-3.77H487.6A9.41,9.41,0,0,1,497,309ZM202.27,467.08a7.5,7.5,0,1,0,7.5,7.5A7.5,7.5,0,0,0,202.27,467.08ZM168.93,213.2a7.5,7.5,0,0,0,7.5-7.5V196a7.5,7.5,0,0,0-15,0v9.68A7.5,7.5,0,0,0,168.93,213.2Zm33.34,223.88a7.5,7.5,0,1,0,7.5,7.5A7.5,7.5,0,0,0,202.27,437.08Z" fill="#7c3aed" class="color000000 svgShape"></path></svg>